<?xml version="1.0" encoding="utf-8"?>
<!-- Generator: Adobe Illustrator 27.1.0, SVG Export Plug-In . SVG Version: 6.00 Build 0)  -->
<svg version="1.1" id="logo" xmlns="http://www.w3.org/2000/svg" xmlns:xlink="http://www.w3.org/1999/xlink" x="0px" y="0px"
	 viewBox="0 0 128 193.4" style="enable-background:new 0 0 128 193.4;" xml:space="preserve">
<style type="text/css">
	.st0{fill:#002241;}
</style>
<g>
	<path class="st0" d="M108.7,111.7L108.7,111.7c0,0.1,0,0.1,0,0.2c0,1.3-1.4,2.4-3.1,2.4c-1.7,0-3.1-1.1-3.1-2.4c0-0.1,0-0.1,0-0.2
		h0V20.3h0c0,0,0,0,0-0.1c0-1.4,1.4-2.5,3.1-2.5c1.7,0,3.1,1.1,3.1,2.5c0,0,0,0,0,0.1h0L108.7,111.7L108.7,111.7z M113.5,8H97.7
		c-3.4,0-6.2,2.8-6.2,6.1v102.5c0,3.4,2.8,6.1,6.2,6.1h15.8c3.4,0,6.2-2.8,6.2-6.1V14.1C119.7,10.7,116.9,8,113.5,8L113.5,8z"/>
	<path class="st0" d="M73.9,71.2v10c0,0.4-0.2,1.4-1.5,1.4c-1.2,0-3,0-3.8,0V19.2h5.3L73.9,71.2L73.9,71.2z M79.1,8L79.1,8H58.5
		v114.8h10.1V94h3.9c0,0,1.4-0.1,1.4,1.3v27.5h11.4V93.7c0-3.1-2.6-5.7-5.7-5.7c3.2,0,5.7-2.5,5.7-5.7V14.1C85.3,10.7,82.5,8,79.1,8
		L79.1,8z"/>
	<polygon class="st0" points="41.7,7.9 52.5,7.9 52.5,122.8 41.7,122.8 	"/>
	<polygon class="st0" points="24.8,7.9 24.8,82.4 18.8,82.4 18.8,7.9 8,7.9 8,122.8 18.8,122.8 18.8,93.9 24.8,93.9 24.8,122.8 
		35.6,122.8 35.6,7.9 	"/>
	<path class="st0" d="M118.3,138.8h-6.6v46.7H98.4v-46.7h-8v-11.9h29.3v11.9H118.3L118.3,138.8z M110.4,136.1h6.6v-6.6H93v6.6h8
		v46.7h8v-46.7L110.4,136.1L110.4,136.1z M85,138.8H70.4v10.7h13.4v11.9H70.4v24.1H57.1v-58.6h29.3v11.9L85,138.8L85,138.8z
		 M69.1,136.1h14.6v-6.6h-24v53.3h8v-24.1h13.4v-6.6H67.8v-16L69.1,136.1L69.1,136.1z M52.2,185.5H40.3v-58.6h13.2v58.6H52.2
		L52.2,185.5z M43,182.8h7.9v-53.3H43V182.8L43,182.8z M35.3,185.5H8v-58.6h12.7v46.7h15.9v11.9L35.3,185.5L35.3,185.5z M10.7,182.8
		H34v-6.6H18v-46.7h-7.4V182.8L10.7,182.8z"/>
</g>
</svg>
