<svg id="footer-butterfly" data-name="#footer-butterfly" xmlns="http://www.w3.org/2000/svg" viewBox="0 0 111.68 130.32"><path class="st0" d="M111.66,70.52l-1.4,0c-2.71-.08-5.37-.28-8-.58s-5.23-.74-7.73-1.27c-2-.42-3.88-.9-5.72-1.44s-3.5-1.09-5.16-1.72c1.66-.63,3.39-1.2,5.16-1.72s3.76-1,5.72-1.44c2.5-.53,5.08-1,7.73-1.27s5.26-.5,8-.58l1.4,0c0-19.93,0-39.86,0-59.78l-1.48,0A89.08,89.08,0,0,0,88.84,3.85,66.57,66.57,0,0,0,70.9,11.69,40.19,40.19,0,0,0,58.73,23.34l-.09.16a58.76,58.76,0,0,1,1.86-6.34,72.31,72.31,0,0,1,3.3-7.81,81.51,81.51,0,0,1,4.35-7.71l.06-.09L65.76,0,65.7.09a88.28,88.28,0,0,0-4.52,8,75.44,75.44,0,0,0-3.43,8.1,60.74,60.74,0,0,0-2,6.82,65.26,65.26,0,0,0-2-6.82,72.66,72.66,0,0,0-3.43-8.1,82.52,82.52,0,0,0-4.52-8L45.79,0,43.36,1.55l.06.09a81.51,81.51,0,0,1,4.35,7.71,71.17,71.17,0,0,1,3.3,7.81q1,2.89,1.72,5.73A40.8,40.8,0,0,0,40.9,11.72,59.21,59.21,0,0,0,33.23,7.6c-.54-.25-1.1-.48-1.65-.72q-1.18-.5-2.43-1-3-1.14-6.26-2.06A86.85,86.85,0,0,0,7.13,1C5.28.86,3.4.75,1.5.69H1.39L0,.65C0,20.58,0,40.51,0,60.43l1.4,0c2.71.08,5.37.28,8,.58s5.23.74,7.73,1.27q2.94.63,5.72,1.44T28,65.48q-2.51.94-5.16,1.72t-5.72,1.44c-2.5.53-5.08,1-7.73,1.27s-5.26.5-8,.58l-1.4,0c0,19.93,0,39.86,0,59.78l1.48,0a89.08,89.08,0,0,0,21.34-3.17,66.57,66.57,0,0,0,17.94-7.84A40.19,40.19,0,0,0,53,107.61a27.8,27.8,0,0,0,2.8-5.62,27,27,0,0,0,2.81,5.61,40.39,40.39,0,0,0,12.22,11.65,66.75,66.75,0,0,0,18,7.85,89.49,89.49,0,0,0,21.39,3.18l1.48,0C111.7,110.38,111.66,90.45,111.66,70.52ZM57.19,93.82s0-.09,0-.13A24.9,24.9,0,0,0,53,80,40.19,40.19,0,0,0,40.79,68.37a66.57,66.57,0,0,0-17.94-7.84A88.5,88.5,0,0,0,2.91,57.42V33.06a86,86,0,0,1,19,2.9A64.57,64.57,0,0,1,39,43.25,39.49,39.49,0,0,1,50.5,53.73a21.32,21.32,0,0,1,4.16,11.86,24.29,24.29,0,0,0,3.93,14.07A40.61,40.61,0,0,0,71.15,91.78a66.57,66.57,0,0,0,17.94,7.84,88.63,88.63,0,0,0,19.68,3.1v24.61A85.33,85.33,0,0,1,89,124.16a63.68,63.68,0,0,1-16.68-7.35A37.61,37.61,0,0,1,61.1,106.19a22.06,22.06,0,0,1-3.9-12.26v-.11ZM2.9,73.31c2.54-.11,5-.32,7.47-.63s5-.73,7.34-1.23q3.95-.84,7.61-2a71,71,0,0,0,6.76-2.52,55.66,55.66,0,0,1,7.15,3.86,38.68,38.68,0,0,1,10.24,9.27A36.71,36.71,0,0,1,42,87.4a54.31,54.31,0,0,1-11.33,6.42,74.46,74.46,0,0,1-13.94,4.31A88.11,88.11,0,0,1,2.91,99.84ZM94.71,31.88a77.7,77.7,0,0,0-14.14,4.25,58.55,58.55,0,0,0-11.88,6.5,41.52,41.52,0,0,0-7.49,6.84,22.19,22.19,0,0,1-3.84-12.19A22.16,22.16,0,0,1,61.25,25,37.52,37.52,0,0,1,72.44,14.39,63.57,63.57,0,0,1,89.67,6.87a85.77,85.77,0,0,1,19.09-3v26.3A89.81,89.81,0,0,0,94.71,31.88ZM86.35,61.5A69.82,69.82,0,0,0,79.6,64a56.34,56.34,0,0,1-7.15-3.86A40,40,0,0,1,63,51.88a37.9,37.9,0,0,1,7.47-7,56,56,0,0,1,11.22-6.12,75.62,75.62,0,0,1,13.64-4.1,88.3,88.3,0,0,1,13.46-1.62V57.64c-2.54.11-5,.32-7.47.63S96.34,59,94,59.5Q90,60.34,86.35,61.5ZM3.53,3.67l1.3.08,1.36.1L7.47,4l1.34.14c.42.05.84.09,1.25.15l1.33.18,1.21.18,1.33.22L15.11,5l1.32.26,1.14.24,1.3.3L20,6.1l1.28.33,1.07.29c.44.12.87.25,1.3.39l1.09.33L26,7.86c.35.12.7.23,1.05.36l1.25.46,1,.38c.42.16.82.34,1.23.51l.94.4,1.22.56.88.41,1.24.62c.26.13.53.26.78.4.46.24.9.5,1.35.75l.59.33c.63.37,1.25.75,1.85,1.13A37.61,37.61,0,0,1,50.61,24.79a22.08,22.08,0,0,1,3.9,12.26v.11h0c0,.05,0,.09,0,.13A25,25,0,0,0,58.75,51,40.19,40.19,0,0,0,70.92,62.62a66.57,66.57,0,0,0,17.94,7.84,88.5,88.5,0,0,0,19.94,3.11V99.85a85.25,85.25,0,0,1-18.83-3,63.43,63.43,0,0,1-17.23-7.52,38.09,38.09,0,0,1-11.58-11.1,21.65,21.65,0,0,1-3.65-12.54h0V65.5h0a25.59,25.59,0,0,0-4.67-13.31A41.18,41.18,0,0,0,40.56,40.83,67.14,67.14,0,0,0,22.8,33.22,88.57,88.57,0,0,0,3,30.19V3.67A3.73,3.73,0,0,1,3.53,3.67Zm13.85,97.27a76.71,76.71,0,0,0,14.45-4.47,57.9,57.9,0,0,0,12-6.82,40.2,40.2,0,0,0,7.31-7,21.78,21.78,0,0,1,3.16,11.08A22.16,22.16,0,0,1,50.42,106a37.65,37.65,0,0,1-11.19,10.62A63.57,63.57,0,0,1,22,124.1a85.77,85.77,0,0,1-19.09,3V102.72A92.17,92.17,0,0,0,17.38,100.94Z"></path></svg>